<?xml version="1.0" encoding="utf-8"?>
<svg xmlns="http://www.w3.org/2000/svg" viewBox="0 0 200 200" width="100%" height="100%" aria-hidden="true" class="yw-ashoka-chakra">
  <!-- Outer Rim (Circle 1) -->
  <circle cx="100" cy="100" r="95" stroke="#000080" stroke-width="6" fill="none" />
  
  <!-- Central Hub (Circle 2) -->
  <circle cx="100" cy="100" r="15" fill="#000080" />
  
  <!-- 24 Spokes (Lines) -->
  <g>
    <line x1="100" y1="100" x2="100" y2="15" stroke="#000080" stroke-width="2" transform="rotate(0, 100, 100)" />
    <line x1="100" y1="100" x2="100" y2="15" stroke="#000080" stroke-width="2" transform="rotate(15, 100, 100)" />
    <line x1="100" y1="100" x2="100" y2="15" stroke="#000080" stroke-width="2" transform="rotate(30, 100, 100)" />
    <line x1="100" y1="100" x2="100" y2="15" stroke="#000080" stroke-width="2" transform="rotate(45, 100, 100)" />
    <line x1="100" y1="100" x2="100" y2="15" stroke="#000080" stroke-width="2" transform="rotate(60, 100, 100)" />
    <line x1="100" y1="100" x2="100" y2="15" stroke="#000080" stroke-width="2" transform="rotate(75, 100, 100)" />
    <line x1="100" y1="100" x2="100" y2="15" stroke="#000080" stroke-width="2" transform="rotate(90, 100, 100)" />
    <line x1="100" y1="100" x2="100" y2="15" stroke="#000080" stroke-width="2" transform="rotate(105, 100, 100)" />
    <line x1="100" y1="100" x2="100" y2="15" stroke="#000080" stroke-width="2" transform="rotate(120, 100, 100)" />
    <line x1="100" y1="100" x2="100" y2="15" stroke="#000080" stroke-width="2" transform="rotate(135, 100, 100)" />
    <line x1="100" y1="100" x2="100" y2="15" stroke="#000080" stroke-width="2" transform="rotate(150, 100, 100)" />
    <line x1="100" y1="100" x2="100" y2="15" stroke="#000080" stroke-width="2" transform="rotate(165, 100, 100)" />
    <line x1="100" y1="100" x2="100" y2="15" stroke="#000080" stroke-width="2" transform="rotate(180, 100, 100)" />
    <line x1="100" y1="100" x2="100" y2="15" stroke="#000080" stroke-width="2" transform="rotate(195, 100, 100)" />
    <line x1="100" y1="100" x2="100" y2="15" stroke="#000080" stroke-width="2" transform="rotate(210, 100, 100)" />
    <line x1="100" y1="100" x2="100" y2="15" stroke="#000080" stroke-width="2" transform="rotate(225, 100, 100)" />
    <line x1="100" y1="100" x2="100" y2="15" stroke="#000080" stroke-width="2" transform="rotate(240, 100, 100)" />
    <line x1="100" y1="100" x2="100" y2="15" stroke="#000080" stroke-width="2" transform="rotate(255, 100, 100)" />
    <line x1="100" y1="100" x2="100" y2="15" stroke="#000080" stroke-width="2" transform="rotate(270, 100, 100)" />
    <line x1="100" y1="100" x2="100" y2="15" stroke="#000080" stroke-width="2" transform="rotate(285, 100, 100)" />
    <line x1="100" y1="100" x2="100" y2="15" stroke="#000080" stroke-width="2" transform="rotate(300, 100, 100)" />
    <line x1="100" y1="100" x2="100" y2="15" stroke="#000080" stroke-width="2" transform="rotate(315, 100, 100)" />
    <line x1="100" y1="100" x2="100" y2="15" stroke="#000080" stroke-width="2" transform="rotate(330, 100, 100)" />
    <line x1="100" y1="100" x2="100" y2="15" stroke="#000080" stroke-width="2" transform="rotate(345, 100, 100)" />
  </g>

  <!-- 24 Outer Dots (Circles 3-26) -->
  <g>
    <circle cx="100" cy="12" r="3" fill="#000080" transform="rotate(0, 100, 100)" />
    <circle cx="100" cy="12" r="3" fill="#000080" transform="rotate(15, 100, 100)" />
    <circle cx="100" cy="12" r="3" fill="#000080" transform="rotate(30, 100, 100)" />
    <circle cx="100" cy="12" r="3" fill="#000080" transform="rotate(45, 100, 100)" />
    <circle cx="100" cy="12" r="3" fill="#000080" transform="rotate(60, 100, 100)" />
    <circle cx="100" cy="12" r="3" fill="#000080" transform="rotate(75, 100, 100)" />
    <circle cx="100" cy="12" r="3" fill="#000080" transform="rotate(90, 100, 100)" />
    <circle cx="100" cy="12" r="3" fill="#000080" transform="rotate(105, 100, 100)" />
    <circle cx="100" cy="12" r="3" fill="#000080" transform="rotate(120, 100, 100)" />
    <circle cx="100" cy="12" r="3" fill="#000080" transform="rotate(135, 100, 100)" />
    <circle cx="100" cy="12" r="3" fill="#000080" transform="rotate(150, 100, 100)" />
    <circle cx="100" cy="12" r="3" fill="#000080" transform="rotate(165, 100, 100)" />
    <circle cx="100" cy="12" r="3" fill="#000080" transform="rotate(180, 100, 100)" />
    <circle cx="100" cy="12" r="3" fill="#000080" transform="rotate(195, 100, 100)" />
    <circle cx="100" cy="12" r="3" fill="#000080" transform="rotate(210, 100, 100)" />
    <circle cx="100" cy="12" r="3" fill="#000080" transform="rotate(225, 100, 100)" />
    <circle cx="100" cy="12" r="3" fill="#000080" transform="rotate(240, 100, 100)" />
    <circle cx="100" cy="12" r="3" fill="#000080" transform="rotate(255, 100, 100)" />
    <circle cx="100" cy="12" r="3" fill="#000080" transform="rotate(270, 100, 100)" />
    <circle cx="100" cy="12" r="3" fill="#000080" transform="rotate(285, 100, 100)" />
    <circle cx="100" cy="12" r="3" fill="#000080" transform="rotate(300, 100, 100)" />
    <circle cx="100" cy="12" r="3" fill="#000080" transform="rotate(315, 100, 100)" />
    <circle cx="100" cy="12" r="3" fill="#000080" transform="rotate(330, 100, 100)" />
    <circle cx="100" cy="12" r="3" fill="#000080" transform="rotate(345, 100, 100)" />
  </g>
</svg>
